<svg width="69" height="43" viewBox="0 0 69 43" fill="none" xmlns="http://www.w3.org/2000/svg">
<rect width="69" height="43" fill="#D9D9D9"/>
<path d="M15.3011 14.267V15.2045H11.6875V14.267H15.3011ZM11.9261 11.4545V18H10.9205V11.4545H11.9261ZM16.0682 11.4545V18H15.0625V11.4545H16.0682ZM20.5639 18.1364C19.973 18.1364 19.4545 17.9957 19.0085 17.7145C18.5653 17.4332 18.2188 17.0398 17.9688 16.5341C17.7216 16.0284 17.598 15.4375 17.598 14.7614C17.598 14.0795 17.7216 13.4844 17.9688 12.9759C18.2188 12.4673 18.5653 12.0724 19.0085 11.7912C19.4545 11.5099 19.973 11.3693 20.5639 11.3693C21.1548 11.3693 21.6719 11.5099 22.1151 11.7912C22.5611 12.0724 22.9077 12.4673 23.1548 12.9759C23.4048 13.4844 23.5298 14.0795 23.5298 14.7614C23.5298 15.4375 23.4048 16.0284 23.1548 16.5341C22.9077 17.0398 22.5611 17.4332 22.1151 17.7145C21.6719 17.9957 21.1548 18.1364 20.5639 18.1364ZM20.5639 17.233C21.0128 17.233 21.3821 17.1179 21.6719 16.8878C21.9616 16.6577 22.1761 16.3551 22.3153 15.9801C22.4545 15.6051 22.5241 15.1989 22.5241 14.7614C22.5241 14.3239 22.4545 13.9162 22.3153 13.5384C22.1761 13.1605 21.9616 12.8551 21.6719 12.6222C21.3821 12.3892 21.0128 12.2727 20.5639 12.2727C20.1151 12.2727 19.7457 12.3892 19.456 12.6222C19.1662 12.8551 18.9517 13.1605 18.8125 13.5384C18.6733 13.9162 18.6037 14.3239 18.6037 14.7614C18.6037 15.1989 18.6733 15.6051 18.8125 15.9801C18.9517 16.3551 19.1662 16.6577 19.456 16.8878C19.7457 17.1179 20.1151 17.233 20.5639 17.233ZM25.065 18V11.4545H27.7411C28.4457 11.4545 29.0053 11.6136 29.4201 11.9318C29.8349 12.25 30.0423 12.6705 30.0423 13.1932C30.0423 13.5909 29.9244 13.8991 29.6886 14.1179C29.4528 14.3338 29.1502 14.4801 28.7809 14.5568C29.0224 14.5909 29.2567 14.6761 29.484 14.8125C29.7141 14.9489 29.9045 15.1364 30.055 15.375C30.2056 15.6108 30.2809 15.9006 30.2809 16.2443C30.2809 16.5795 30.1957 16.8793 30.0252 17.1435C29.8548 17.4077 29.6104 17.6165 29.2923 17.7699C28.9741 17.9233 28.5934 18 28.1502 18H25.065ZM26.0195 17.0795H28.1502C28.4968 17.0795 28.7681 16.9972 28.9641 16.8324C29.1602 16.6676 29.2582 16.4432 29.2582 16.1591C29.2582 15.821 29.1602 15.5554 28.9641 15.3622C28.7681 15.1662 28.4968 15.0682 28.1502 15.0682H26.0195V17.0795ZM26.0195 14.1989H27.7411C28.011 14.1989 28.2425 14.1619 28.4357 14.0881C28.6289 14.0114 28.7766 13.9034 28.8789 13.7642C28.984 13.6222 29.0366 13.4545 29.0366 13.2614C29.0366 12.9858 28.9215 12.7699 28.6914 12.6136C28.4613 12.4545 28.1445 12.375 27.7411 12.375H26.0195V14.1989ZM34.4624 18.1364C33.8714 18.1364 33.353 17.9957 32.907 17.7145C32.4638 17.4332 32.1172 17.0398 31.8672 16.5341C31.62 16.0284 31.4964 15.4375 31.4964 14.7614C31.4964 14.0795 31.62 13.4844 31.8672 12.9759C32.1172 12.4673 32.4638 12.0724 32.907 11.7912C33.353 11.5099 33.8714 11.3693 34.4624 11.3693C35.0533 11.3693 35.5703 11.5099 36.0135 11.7912C36.4595 12.0724 36.8061 12.4673 37.0533 12.9759C37.3033 13.4844 37.4283 14.0795 37.4283 14.7614C37.4283 15.4375 37.3033 16.0284 37.0533 16.5341C36.8061 17.0398 36.4595 17.4332 36.0135 17.7145C35.5703 17.9957 35.0533 18.1364 34.4624 18.1364ZM34.4624 17.233C34.9112 17.233 35.2805 17.1179 35.5703 16.8878C35.8601 16.6577 36.0746 16.3551 36.2138 15.9801C36.353 15.6051 36.4226 15.1989 36.4226 14.7614C36.4226 14.3239 36.353 13.9162 36.2138 13.5384C36.0746 13.1605 35.8601 12.8551 35.5703 12.6222C35.2805 12.3892 34.9112 12.2727 34.4624 12.2727C34.0135 12.2727 33.6442 12.3892 33.3544 12.6222C33.0646 12.8551 32.8501 13.1605 32.7109 13.5384C32.5717 13.9162 32.5021 14.3239 32.5021 14.7614C32.5021 15.1989 32.5717 15.6051 32.7109 15.9801C32.8501 16.3551 33.0646 16.6577 33.3544 16.8878C33.6442 17.1179 34.0135 17.233 34.4624 17.233ZM41.6225 18.1364C41.0089 18.1364 40.4805 17.9915 40.0373 17.7017C39.5941 17.4119 39.2532 17.0128 39.0146 16.5043C38.7759 15.9957 38.6566 15.4148 38.6566 14.7614C38.6566 14.0966 38.7788 13.5099 39.0231 13.0014C39.2702 12.4901 39.614 12.0909 40.0543 11.804C40.4975 11.5142 41.0146 11.3693 41.6055 11.3693C42.0657 11.3693 42.4805 11.4545 42.8498 11.625C43.2191 11.7955 43.5217 12.0341 43.7575 12.3409C43.9933 12.6477 44.1396 13.0057 44.1964 13.4148H43.1907C43.114 13.1165 42.9435 12.8523 42.6793 12.6222C42.418 12.3892 42.0657 12.2727 41.6225 12.2727C41.2305 12.2727 40.8867 12.375 40.5913 12.5795C40.2987 12.7812 40.07 13.0668 39.9052 13.4361C39.7433 13.8026 39.6623 14.233 39.6623 14.7273C39.6623 15.233 39.7418 15.6733 39.9009 16.0483C40.0629 16.4233 40.2901 16.7145 40.5827 16.9219C40.8782 17.1293 41.2248 17.233 41.6225 17.233C41.8839 17.233 42.1211 17.1875 42.3342 17.0966C42.5472 17.0057 42.7276 16.875 42.8754 16.7045C43.0231 16.5341 43.1282 16.3295 43.1907 16.0909H44.1964C44.1396 16.4773 43.9989 16.8253 43.7745 17.1349C43.5529 17.4418 43.2589 17.6861 42.8924 17.8679C42.5288 18.0469 42.1055 18.1364 41.6225 18.1364ZM45.1509 12.392V11.4545H50.4691V12.392H48.3214V18H47.3157V12.392H45.1509ZM52.9418 16.517L56.0952 11.4545H57.2543V18H56.2486V12.9375L53.1122 18H51.9361V11.4545H52.9418V16.517Z" fill="black"/>
<path d="M10.3068 35.1136V32.0625H10.8693C11.0625 31.8864 11.2443 31.6378 11.4148 31.3168C11.5881 30.9929 11.7344 30.5611 11.8537 30.0213C11.9759 29.4787 12.0568 28.7898 12.0966 27.9545L12.2841 24.2727H17.4659V32.0625H18.4716V35.0966H17.4659V33H11.3125V35.1136H10.3068ZM12.1307 32.0625H16.4602V25.2102H13.2386L13.1023 27.9545C13.0682 28.5909 13.0085 29.1676 12.9233 29.6847C12.8381 30.1989 12.7287 30.6548 12.5952 31.0526C12.4616 31.4474 12.3068 31.7841 12.1307 32.0625ZM19.7287 35.1136V32.0625H20.2912C20.4844 31.8864 20.6662 31.6378 20.8366 31.3168C21.0099 30.9929 21.1562 30.5611 21.2756 30.0213C21.3977 29.4787 21.4787 28.7898 21.5185 27.9545L21.706 24.2727H26.8878V32.0625H27.8935V35.0966H26.8878V33H20.7344V35.1136H19.7287ZM21.5526 32.0625H25.8821V25.2102H22.6605L22.5241 27.9545C22.4901 28.5909 22.4304 29.1676 22.3452 29.6847C22.2599 30.1989 22.1506 30.6548 22.017 31.0526C21.8835 31.4474 21.7287 31.7841 21.5526 32.0625ZM36.7688 26.4545V27.392H33.7347V33H32.729V26.4545H36.7688ZM38.2369 35.4545V26.4545H39.2085V27.4943H39.3278C39.4016 27.3807 39.5039 27.2358 39.6346 27.0597C39.7681 26.8807 39.9585 26.7216 40.2056 26.5824C40.4556 26.4403 40.7937 26.3693 41.2198 26.3693C41.771 26.3693 42.2567 26.5071 42.6772 26.7827C43.0977 27.0582 43.4258 27.4489 43.6616 27.9545C43.8974 28.4602 44.0153 29.0568 44.0153 29.7443C44.0153 30.4375 43.8974 31.0384 43.6616 31.5469C43.4258 32.0526 43.0991 32.4446 42.6815 32.723C42.2638 32.9986 41.7823 33.1364 41.2369 33.1364C40.8164 33.1364 40.4798 33.0668 40.2269 32.9276C39.9741 32.7855 39.7795 32.625 39.6431 32.446C39.5067 32.2642 39.4016 32.1136 39.3278 31.9943H39.2425V35.4545H38.2369ZM39.2255 29.7273C39.2255 30.2216 39.2979 30.6577 39.4428 31.0355C39.5877 31.4105 39.7994 31.7045 40.0778 31.9176C40.3562 32.1278 40.6971 32.233 41.1005 32.233C41.521 32.233 41.8718 32.1222 42.1531 31.9006C42.4371 31.6761 42.6502 31.375 42.7923 30.9972C42.9371 30.6165 43.0096 30.1932 43.0096 29.7273C43.0096 29.267 42.9386 28.8523 42.7965 28.483C42.6573 28.1108 42.4457 27.8168 42.1616 27.6009C41.8803 27.3821 41.5266 27.2727 41.1005 27.2727C40.6914 27.2727 40.3477 27.3764 40.0692 27.5838C39.7908 27.7884 39.5806 28.0753 39.4386 28.4446C39.2965 28.8111 39.2255 29.2386 39.2255 29.7273ZM47.4755 33.1534C47.0607 33.1534 46.6843 33.0753 46.3462 32.919C46.0082 32.7599 45.7397 32.5312 45.5408 32.233C45.342 31.9318 45.2425 31.5682 45.2425 31.142C45.2425 30.767 45.3164 30.4631 45.4641 30.2301C45.6119 29.9943 45.8093 29.8097 46.0565 29.6761C46.3036 29.5426 46.5763 29.4432 46.8746 29.3778C47.1758 29.3097 47.4783 29.2557 47.7823 29.2159C48.18 29.1648 48.5025 29.1264 48.7496 29.1009C48.9996 29.0724 49.1815 29.0256 49.2951 28.9602C49.4116 28.8949 49.4698 28.7812 49.4698 28.6193V28.5852C49.4698 28.1648 49.3548 27.8381 49.1246 27.6051C48.8974 27.3722 48.5522 27.2557 48.0891 27.2557C47.609 27.2557 47.2326 27.3608 46.9599 27.571C46.6871 27.7812 46.4954 28.0057 46.3846 28.2443L45.43 27.9034C45.6005 27.5057 45.8278 27.196 46.1119 26.9744C46.3988 26.75 46.7113 26.5937 47.0494 26.5057C47.3903 26.4148 47.7255 26.3693 48.055 26.3693C48.2653 26.3693 48.5067 26.3949 48.7795 26.446C49.055 26.4943 49.3207 26.5952 49.5763 26.7486C49.8349 26.902 50.0494 27.1335 50.2198 27.4432C50.3903 27.7528 50.4755 28.1676 50.4755 28.6875V33H49.4698V32.1136H49.4187C49.3505 32.2557 49.2369 32.4077 49.0778 32.5696C48.9187 32.7315 48.707 32.8693 48.4428 32.983C48.1786 33.0966 47.8562 33.1534 47.4755 33.1534ZM47.6289 32.25C48.0266 32.25 48.3619 32.1719 48.6346 32.0156C48.9102 31.8594 49.1175 31.6577 49.2567 31.4105C49.3988 31.1634 49.4698 30.9034 49.4698 30.6307V29.7102C49.4272 29.7614 49.3335 29.8082 49.1886 29.8509C49.0465 29.8906 48.8817 29.9261 48.6942 29.9574C48.5096 29.9858 48.3292 30.0114 48.1531 30.0341C47.9798 30.054 47.8391 30.071 47.7312 30.0852C47.4698 30.1193 47.2255 30.1747 46.9982 30.2514C46.7738 30.3253 46.592 30.4375 46.4528 30.5881C46.3164 30.7358 46.2482 30.9375 46.2482 31.1932C46.2482 31.5426 46.3775 31.8068 46.636 31.9858C46.8974 32.1619 47.2283 32.25 47.6289 32.25ZM51.6122 34.875V32.0625H52.1577C52.2912 31.9233 52.4063 31.7727 52.5028 31.6108C52.5994 31.4489 52.6832 31.2571 52.7543 31.0355C52.8281 30.8111 52.8906 30.5384 52.9418 30.2173C52.9929 29.8935 53.0384 29.5028 53.0781 29.0455L53.2997 26.4545H57.4588V32.0625H58.4645V34.875H57.4588V33H52.6179V34.875H51.6122ZM53.2997 32.0625H56.4531V27.392H54.2372L54.0668 29.0455C53.9957 29.7301 53.9077 30.3281 53.8026 30.8395C53.6974 31.3509 53.5298 31.7585 53.2997 32.0625Z" fill="black"/>
</svg>
