<!-- icon666.com - MILLIONS vector ICONS FREE --><svg viewBox="-52 0 512 512" xmlns="http://www.w3.org/2000/svg"><path d="m348.878906 60.726562c-37.773437-38.320312-88.179687-59.878906-141.9375-60.7031245-1.054687-.015625-2.105468-.0234375-3.15625-.0234375-53.457031 0-104.015625 20.855469-142.679687 58.933594-39.40625 38.804687-61.105469 90.238281-61.105469 144.824218 0 48.035157 17.03125 94.648438 47.972656 131.320313.113282.152344.234375.300781.359375.445313l.488281.554687c.917969 1.074219 1.851563 2.140625 2.742188 3.140625l146 167.0625c3.1875 3.648438 7.753906 5.71875 12.582031 5.71875.125 0 .25-.003906.375-.003906 4.964844-.109375 9.589844-2.398438 12.691407-6.277344l98.960937-123.859375c2.585937-3.234375 2.058594-7.957031-1.179687-10.542969-3.238282-2.585937-7.957032-2.058594-10.542969 1.175782l-98.960938 123.859374c-.414062.515626-.9375.636719-1.300781.644532-.359375-.011719-.894531-.089844-1.328125-.585938l-146.046875-167.121094c-.871094-.976562-1.734375-1.960937-2.640625-3.019531l-.242187-.277343c-.066407-.089844-.136719-.175782-.207032-.257813-28.835937-34.015625-44.71875-77.335937-44.71875-121.976563 0-50.535156 20.113282-98.171874 56.628906-134.136718 36.539063-35.980469 84.492188-55.351563 135.078126-54.59375 49.792968.761718 96.488281 20.734375 131.480468 56.234375 35.027344 35.539062 54.320313 82.59375 54.320313 132.496093 0 44.640626-15.882813 87.960938-44.71875 121.976563-.144531.175781-.285157.355469-.417969.539063l-17.242188 21.585937c-2.585937 3.234375-2.0625 7.957031 1.175782 10.542969 3.238281 2.585937 7.960937 2.058594 10.546875-1.179688l17.542969-21.953125c.050781-.066406.101562-.132812.152343-.199219 30.933594-36.667968 47.964844-83.285156 47.964844-131.3125 0-53.871093-20.824219-104.667968-58.636719-143.03125zm0 0" fill="#000000" style="fill: rgb(255, 255, 255);"></path><path d="m137.988281 151.671875c-3.558593-2.121094-8.164062-.957031-10.289062 2.601563-8.140625 13.648437-12.441407 29.304687-12.441407 45.273437 0 48.800781 39.703126 88.503906 88.5 88.503906 48.800782 0 88.503907-39.703125 88.503907-88.503906s-39.703125-88.5-88.503907-88.5c-16.734374 0-33.035156 4.695313-47.128906 13.582031-2.40625 1.515625-4.765625 3.167969-7.015625 4.910156-3.273437 2.535157-3.875 7.25-1.335937 10.523438 2.539062 3.277344 7.25 3.871094 10.523437 1.339844 1.871094-1.449219 3.828125-2.820313 5.828125-4.082032 11.695313-7.371093 25.226563-11.269531 39.128906-11.269531 40.527344 0 73.496094 32.96875 73.496094 73.496094s-32.96875 73.496094-73.496094 73.496094c-40.527343 0-73.496093-32.96875-73.496093-73.496094 0-13.265625 3.570312-26.261719 10.324219-37.585937 2.125-3.558594.960937-8.164063-2.597657-10.289063zm0 0" fill="#000000" style="fill: rgb(255, 255, 255);"></path></svg>